<mxfile host="65bd71144e">
    <diagram id="efU3Od57x1S5jcg2LvYc" name="Page-1">
        <mxGraphModel dx="882" dy="1787" grid="1" gridSize="10" guides="1" tooltips="1" connect="1" arrows="1" fold="1" page="1" pageScale="1" pageWidth="827" pageHeight="1169" math="0" shadow="0">
            <root>
                <mxCell id="0"/>
                <mxCell id="1" parent="0"/>
                <mxCell id="17" value="" style="rounded=0;whiteSpace=wrap;html=1;fillColor=#FFFFFF;strokeColor=none;" parent="1" vertex="1">
                    <mxGeometry x="80" y="-140" width="480" height="930" as="geometry"/>
                </mxCell>
                <mxCell id="fjMfWLwFmTZbs2qAcrp_-68" value="" style="rounded=0;whiteSpace=wrap;html=1;dashed=1;strokeColor=none;glass=0;shadow=1;" parent="1" vertex="1">
                    <mxGeometry x="210" y="-100" width="310" height="850" as="geometry"/>
                </mxCell>
                <mxCell id="fjMfWLwFmTZbs2qAcrp_-62" style="edgeStyle=orthogonalEdgeStyle;rounded=0;orthogonalLoop=1;jettySize=auto;html=1;fillColor=#fa6800;strokeColor=#C73500;" parent="1" source="4" target="5" edge="1">
                    <mxGeometry relative="1" as="geometry">
                        <Array as="points">
                            <mxPoint x="370" y="390"/>
                            <mxPoint x="370" y="390"/>
                        </Array>
                    </mxGeometry>
                </mxCell>
                <mxCell id="4" value="Amazon S3" style="outlineConnect=0;fontColor=#232F3E;gradientColor=none;strokeColor=#ffffff;fillColor=#232F3E;dashed=0;verticalLabelPosition=middle;verticalAlign=bottom;align=center;html=1;whiteSpace=wrap;fontSize=10;fontStyle=1;spacing=3;shape=mxgraph.aws4.productIcon;prIcon=mxgraph.aws4.s3;" parent="1" vertex="1">
                    <mxGeometry x="250" y="340" width="80" height="100" as="geometry"/>
                </mxCell>
                <mxCell id="fjMfWLwFmTZbs2qAcrp_-56" style="edgeStyle=orthogonalEdgeStyle;rounded=0;orthogonalLoop=1;jettySize=auto;html=1;entryX=0.517;entryY=0.292;entryDx=0;entryDy=0;entryPerimeter=0;" parent="1" source="5" target="47" edge="1">
                    <mxGeometry relative="1" as="geometry"/>
                </mxCell>
                <mxCell id="fjMfWLwFmTZbs2qAcrp_-57" style="edgeStyle=orthogonalEdgeStyle;rounded=0;orthogonalLoop=1;jettySize=auto;html=1;fillColor=#fa6800;strokeColor=#C73500;" parent="1" source="5" target="47" edge="1">
                    <mxGeometry relative="1" as="geometry"/>
                </mxCell>
                <mxCell id="5" value="AWS Glue" style="outlineConnect=0;fontColor=#232F3E;gradientColor=none;strokeColor=#ffffff;fillColor=#232F3E;dashed=0;verticalLabelPosition=middle;verticalAlign=bottom;align=center;html=1;whiteSpace=wrap;fontSize=10;fontStyle=1;spacing=3;shape=mxgraph.aws4.productIcon;prIcon=mxgraph.aws4.glue;" parent="1" vertex="1">
                    <mxGeometry x="404" y="340" width="80" height="100" as="geometry"/>
                </mxCell>
                <mxCell id="fjMfWLwFmTZbs2qAcrp_-53" style="edgeStyle=orthogonalEdgeStyle;rounded=0;orthogonalLoop=1;jettySize=auto;html=1;fillColor=#fa6800;strokeColor=#948F8F;" parent="1" source="9" target="fjMfWLwFmTZbs2qAcrp_-50" edge="1">
                    <mxGeometry relative="1" as="geometry"/>
                </mxCell>
                <mxCell id="9" value="Amazon Athena" style="outlineConnect=0;fontColor=#232F3E;gradientColor=none;strokeColor=#ffffff;fillColor=#232F3E;dashed=0;verticalLabelPosition=middle;verticalAlign=bottom;align=center;html=1;whiteSpace=wrap;fontSize=10;fontStyle=1;spacing=3;shape=mxgraph.aws4.productIcon;prIcon=mxgraph.aws4.athena;" parent="1" vertex="1">
                    <mxGeometry x="404" y="605" width="80" height="110" as="geometry"/>
                </mxCell>
                <mxCell id="fjMfWLwFmTZbs2qAcrp_-72" style="edgeStyle=orthogonalEdgeStyle;rounded=0;orthogonalLoop=1;jettySize=auto;html=1;fillColor=#fa6800;strokeColor=#C73500;" parent="1" source="15" target="4" edge="1">
                    <mxGeometry relative="1" as="geometry"/>
                </mxCell>
                <mxCell id="15" value="Amazon SageMaker" style="outlineConnect=0;fontColor=#232F3E;gradientColor=none;strokeColor=#ffffff;fillColor=#232F3E;dashed=0;verticalLabelPosition=middle;verticalAlign=bottom;align=center;html=1;whiteSpace=wrap;fontSize=10;fontStyle=1;spacing=3;shape=mxgraph.aws4.productIcon;prIcon=mxgraph.aws4.sagemaker;" parent="1" vertex="1">
                    <mxGeometry x="250" y="200" width="80" height="110" as="geometry"/>
                </mxCell>
                <mxCell id="18" value="" style="outlineConnect=0;dashed=0;verticalLabelPosition=bottom;verticalAlign=top;align=center;html=1;shape=mxgraph.aws3.cloud_2;fillColor=#F58534;gradientColor=none;" parent="1" vertex="1">
                    <mxGeometry x="490" y="-100" width="30" height="30" as="geometry"/>
                </mxCell>
                <mxCell id="22" value="" style="shape=image;verticalLabelPosition=bottom;labelBackgroundColor=#ffffff;verticalAlign=top;aspect=fixed;imageAspect=0;image=https://external-content.duckduckgo.com/iu/?u=https%3A%2F%2Ftse2.mm.bing.net%2Fth%3Fid%3DOIP.txwKGJOoQ2W0ka_9htbu0QAAAA%26pid%3DApi&amp;f=1;" parent="1" vertex="1">
                    <mxGeometry x="80" y="-140" width="30" height="30" as="geometry"/>
                </mxCell>
                <mxCell id="25" value="" style="shape=image;verticalLabelPosition=bottom;labelBackgroundColor=#ffffff;verticalAlign=top;aspect=fixed;imageAspect=0;image=https://external-content.duckduckgo.com/iu/?u=https%3A%2F%2Ftse4.mm.bing.net%2Fth%3Fid%3DOIP.unmMJglfdvXIVN6lkWMGUwHaHa%26pid%3DApi&amp;f=1;" parent="1" vertex="1">
                    <mxGeometry x="111.56" y="-140" width="30" height="30" as="geometry"/>
                </mxCell>
                <mxCell id="31" value="" style="points=[];aspect=fixed;html=1;align=center;shadow=0;dashed=0;image;image=img/lib/allied_telesis/storage/Datacenter_Server_Half_Rack_ToR.svg;rounded=0;strokeColor=#030303;fillColor=#E8E8E8;" parent="1" vertex="1">
                    <mxGeometry x="98.8" y="363" width="41.56" height="54" as="geometry"/>
                </mxCell>
                <mxCell id="54" style="edgeStyle=orthogonalEdgeStyle;rounded=0;orthogonalLoop=1;jettySize=auto;html=1;fillColor=#fa6800;strokeColor=#C73500;" parent="1" source="33" target="50" edge="1">
                    <mxGeometry relative="1" as="geometry"/>
                </mxCell>
                <mxCell id="33" value="" style="aspect=fixed;perimeter=ellipsePerimeter;html=1;align=center;shadow=0;dashed=0;spacingTop=3;image;image=img/lib/active_directory/web_server.svg;rounded=0;strokeColor=#030303;fillColor=#E8E8E8;" parent="1" vertex="1">
                    <mxGeometry x="147.57999999999998" y="95" width="40" height="50" as="geometry"/>
                </mxCell>
                <mxCell id="49" style="edgeStyle=orthogonalEdgeStyle;rounded=0;orthogonalLoop=1;jettySize=auto;html=1;strokeColor=#C73500;fillColor=#fa6800;" parent="1" source="35" target="4" edge="1">
                    <mxGeometry relative="1" as="geometry"/>
                </mxCell>
                <mxCell id="35" value="" style="outlineConnect=0;dashed=0;verticalLabelPosition=bottom;verticalAlign=top;align=center;html=1;shape=mxgraph.aws3.android;fillColor=#FFD44F;gradientColor=none;rounded=0;shadow=1;strokeColor=#030303;" parent="1" vertex="1">
                    <mxGeometry x="147.57999999999998" y="370.5" width="36.75" height="39" as="geometry"/>
                </mxCell>
                <mxCell id="51" style="edgeStyle=orthogonalEdgeStyle;rounded=0;orthogonalLoop=1;jettySize=auto;html=1;fillColor=#6a00ff;strokeColor=#3700CC;" parent="1" source="37" target="50" edge="1">
                    <mxGeometry relative="1" as="geometry"/>
                </mxCell>
                <mxCell id="37" value="AWS Lambda" style="outlineConnect=0;fontColor=#232F3E;gradientColor=none;strokeColor=#ffffff;fillColor=#232F3E;dashed=0;verticalLabelPosition=middle;verticalAlign=bottom;align=center;html=1;whiteSpace=wrap;fontSize=10;fontStyle=1;spacing=3;shape=mxgraph.aws4.productIcon;prIcon=mxgraph.aws4.lambda;rounded=0;shadow=0;" parent="1" vertex="1">
                    <mxGeometry x="250" y="-60" width="80" height="100" as="geometry"/>
                </mxCell>
                <mxCell id="fjMfWLwFmTZbs2qAcrp_-63" style="edgeStyle=orthogonalEdgeStyle;rounded=0;orthogonalLoop=1;jettySize=auto;html=1;fillColor=#fa6800;strokeColor=#948F8F;" parent="1" source="47" target="4" edge="1">
                    <mxGeometry relative="1" as="geometry">
                        <Array as="points">
                            <mxPoint x="300" y="490"/>
                        </Array>
                    </mxGeometry>
                </mxCell>
                <mxCell id="fjMfWLwFmTZbs2qAcrp_-65" style="edgeStyle=orthogonalEdgeStyle;rounded=0;orthogonalLoop=1;jettySize=auto;html=1;fillColor=#fa6800;strokeColor=#948F8F;" parent="1" source="47" edge="1">
                    <mxGeometry relative="1" as="geometry">
                        <mxPoint x="444" y="535" as="targetPoint"/>
                    </mxGeometry>
                </mxCell>
                <mxCell id="47" value="" style="html=1;aspect=fixed;strokeColor=none;shadow=0;align=center;verticalAlign=top;fillColor=#3B8DF1;shape=mxgraph.gcp2.gear" parent="1" vertex="1">
                    <mxGeometry x="424" y="470" width="40" height="40" as="geometry"/>
                </mxCell>
                <mxCell id="fjMfWLwFmTZbs2qAcrp_-60" style="edgeStyle=orthogonalEdgeStyle;rounded=0;orthogonalLoop=1;jettySize=auto;html=1;fillColor=#fa6800;strokeColor=#948F8F;" parent="1" target="9" edge="1">
                    <mxGeometry relative="1" as="geometry">
                        <mxPoint x="444" y="575" as="sourcePoint"/>
                    </mxGeometry>
                </mxCell>
                <mxCell id="fjMfWLwFmTZbs2qAcrp_-52" style="edgeStyle=orthogonalEdgeStyle;rounded=0;orthogonalLoop=1;jettySize=auto;html=1;fillColor=#ffcd28;strokeColor=#d79b00;gradientColor=#ffa500;" parent="1" source="fjMfWLwFmTZbs2qAcrp_-50" target="4" edge="1">
                    <mxGeometry relative="1" as="geometry">
                        <mxPoint x="269.25" y="375" as="targetPoint"/>
                        <Array as="points">
                            <mxPoint x="280" y="470"/>
                            <mxPoint x="280" y="470"/>
                        </Array>
                    </mxGeometry>
                </mxCell>
                <mxCell id="fjMfWLwFmTZbs2qAcrp_-50" value="" style="aspect=fixed;perimeter=ellipsePerimeter;html=1;align=center;shadow=0;dashed=0;spacingTop=3;image;image=img/lib/active_directory/sql_server.svg;" parent="1" vertex="1">
                    <mxGeometry x="260" y="530" width="38.5" height="50" as="geometry"/>
                </mxCell>
                <mxCell id="53" style="edgeStyle=orthogonalEdgeStyle;rounded=0;orthogonalLoop=1;jettySize=auto;html=1;fillColor=#fa6800;strokeColor=#C73500;" parent="1" source="50" target="15" edge="1">
                    <mxGeometry relative="1" as="geometry"/>
                </mxCell>
                <mxCell id="50" value="Amazon ECR" style="outlineConnect=0;fontColor=#232F3E;gradientColor=none;strokeColor=#ffffff;fillColor=#232F3E;dashed=0;verticalLabelPosition=middle;verticalAlign=bottom;align=center;html=1;whiteSpace=wrap;fontSize=10;fontStyle=1;spacing=3;shape=mxgraph.aws4.productIcon;prIcon=mxgraph.aws4.ecr;" parent="1" vertex="1">
                    <mxGeometry x="250" y="70" width="80" height="100" as="geometry"/>
                </mxCell>
                <mxCell id="55" value="" style="aspect=fixed;html=1;points=[];align=center;image;fontSize=12;image=img/lib/mscae/Docker.svg;" parent="1" vertex="1">
                    <mxGeometry x="348" y="106.06" width="34" height="27.88" as="geometry"/>
                </mxCell>
                <mxCell id="56" value="" style="html=1;aspect=fixed;strokeColor=none;shadow=0;align=center;verticalAlign=top;fillColor=#3B8DF1;shape=mxgraph.gcp2.data_access" parent="1" vertex="1">
                    <mxGeometry x="427.72" y="537.5" width="32.55" height="35" as="geometry"/>
                </mxCell>
                <mxCell id="57" value="" style="outlineConnect=0;dashed=0;verticalLabelPosition=bottom;verticalAlign=top;align=center;html=1;shape=mxgraph.aws3.android;fillColor=#FFD44F;gradientColor=none;rounded=0;shadow=1;strokeColor=#030303;" vertex="1" parent="1">
                    <mxGeometry x="101.20999999999998" y="100.5" width="36.75" height="39" as="geometry"/>
                </mxCell>
            </root>
        </mxGraphModel>
    </diagram>
</mxfile>